# xmcd CD database file
#
# Track frame offsets:
#	150
#	16077
#	34970
#	54597
#	75140
#	94177
#	112272
#	131275
#	149495
#	168325
#	183670
#	202372
#	220895
#	238945
#	256100
#	275205
#	290922
#	309797
#
# Disc length: 4369 seconds
#
# Revision: 1
# Processed by: cddbd v1.5.2PL0 Copyright (c) Steve Scherf et al.
# Submitted via: CDex 1.70beta2
#
DISCID=12110f12
DTITLE=Various Artist - Honey, My Love CD5
DYEAR=2003
DGENRE=kpops
TTITLE0=?뤵굦?됥겘永먩쭓?듾세?덀걚??- ?썬꺍?삠궥??깾?
TTITLE1=?ャ깚??- FinKL
TTITLE2=?쎼걮?╉걹?쀣겍?뜰걟??- G.O.D.
TTITLE3=沃겹굠?듿맀?믤꽋?쀣겍 - ?볝궦?
TTITLE4=Mr.A-J0 - As One
TTITLE5=雅븀뵟??풆?쀣걦??- ?ゃ긿?듐꺍
TTITLE6=Suddenly - 竊ゃ꺈?쇈궚
TTITLE7=易쇻겓窈붵굮?뗣굙??- ?곥깵?녈깏?
TTITLE8=獰롢걮?꾣떂??- ??깲?삠궦?㎯꺍?
TTITLE9=?뗥쭓??- ?묆궚??깶?
TTITLE10=鵝뤵굯?㎯겳?뗣겏 - ?녈꺍?삠궦?녈궑?⒲꺍
TTITLE11=??걲??겘?쇻겧?╉걹?녴겎??겒?꾠걢??- ?낁죱?밤궞?껁긽
TTITLE12=鵝뺛굮?볣걬?ｃ걼??- ?ⓦ궧?녴꺂
TTITLE13=?ャ궚?녴꺂??- ?욁꺆?뗣궓
TTITLE14=壤쇔Ⅳ??겲?ㅳ걩??빓??- DJ Doc
TTITLE15=?γ굦?잌풄 - Y2K
TTITLE16=餓뽨볶 - ?ㅳ꺍?욍궚?밤궚?⒲깣
TTITLE17=?쒌걮?볝겎?듽걚?잍꽋??걼?곥겓 - ?ㅳ꺕?멥깷?╉궔?
EXTD=YEAR: 2003
EXTT0=
EXTT1=
EXTT2=
EXTT3=
EXTT4=
EXTT5=
EXTT6=
EXTT7=
EXTT8=
EXTT9=
EXTT10=
EXTT11=
EXTT12=
EXTT13=
EXTT14=
EXTT15=
EXTT16=
EXTT17=
PLAYORDER=
